<?xml version="1.0" encoding="UTF-8" standalone="no"?>
<svg
   xmlns:dc="http://purl.org/dc/elements/1.1/"
   xmlns:cc="http://creativecommons.org/ns#"
   xmlns:rdf="http://www.w3.org/1999/02/22-rdf-syntax-ns#"
   xmlns:svg="http://www.w3.org/2000/svg"
   xmlns="http://www.w3.org/2000/svg"
   id="svg8"
   version="1.1"
   viewBox="0 0 264.58331 105.83333"
   height="400"
   width="1000">
  <defs
     id="defs2" />
  <metadata
     id="metadata5">
    <rdf:RDF>
      <cc:Work
         rdf:about="">
        <dc:format>image/svg+xml</dc:format>
        <dc:type
           rdf:resource="http://purl.org/dc/dcmitype/StillImage" />
        <dc:title></dc:title>
      </cc:Work>
    </rdf:RDF>
  </metadata>
  <g
     transform="translate(0.70951343,-83.133837)"
     id="layer1">
    <rect
       y="85.779671"
       x="1.9363198"
       height="100.54166"
       width="259.29166"
       id="rect1196"
       style="opacity:1;fill:#19408b;fill-opacity:1;stroke:#ffffff;stroke-width:5.29166651;stroke-miterlimit:4;stroke-dasharray:none;stroke-opacity:1" />
    <g
       id="text1200"
       style="font-style:normal;font-variant:normal;font-weight:normal;font-stretch:normal;font-size:98.4312973px;line-height:125%;font-family:'Roadgeek 2005 Series EM';-inkscape-font-specification:'Roadgeek 2005 Series EM';text-align:center;letter-spacing:0px;word-spacing:0px;writing-mode:lr-tb;text-anchor:middle;fill:#ffffff;fill-opacity:1;stroke:none;stroke-width:0.26458332px;stroke-linecap:butt;stroke-linejoin:miter;stroke-opacity:1"
       aria-label="AS-I">
      <path
         id="path9112"
         style="fill:#ffffff;stroke-width:0.26458332px"
         d="M 88.654981,169.12341 82.355378,153.57127 H 56.271084 l -6.299603,15.55214 H 35.895805 l 26.576451,-66.14583 h 13.68195 l 26.576454,66.14583 z M 69.65774,121.87639 61.586374,140.38147 h 15.453714 z" />
      <path
         id="path9114"
         style="fill:#ffffff;stroke-width:0.26458332px"
         d="m 166.06351,149.73245 q 0,5.21686 -2.55921,9.84313 -2.55922,4.52784 -6.89019,6.98862 -2.95294,1.77176 -7.67765,2.75608 -4.7247,0.98431 -9.4494,0.98431 -5.61058,0 -10.82744,-1.47647 -5.21686,-1.5749 -9.54784,-4.52784 -1.5749,-0.88588 -2.95294,-1.96863 -1.27961,-1.08274 -3.54352,-3.1498 l 9.25254,-9.25254 q 4.13411,3.83882 8.26823,5.51215 4.23254,1.67333 10.03999,1.67333 5.70901,0 9.25254,-1.87019 3.64196,-1.87019 3.64196,-5.31529 0,-1.37804 -0.78745,-3.05137 -0.78745,-1.67333 -2.16549,-2.55921 -0.88588,-0.49216 -1.8702,-0.88589 -0.98431,-0.49215 -2.46078,-0.88588 -1.37804,-0.39372 -3.54352,-0.78745 -2.06706,-0.49215 -5.31529,-1.08274 -5.31529,-1.27961 -8.56353,-2.36235 -3.24823,-1.18118 -5.31529,-2.55922 -3.34666,-2.26392 -5.31529,-6.20117 -1.87019,-3.93725 -1.87019,-8.07136 0,-5.02 2.36235,-9.35098 2.46078,-4.33098 6.89019,-6.89019 2.75608,-1.67333 6.10274,-2.46078 3.34666,-0.78745 7.77607,-0.78745 5.61059,0 10.63058,1.27961 5.11843,1.2796 9.25254,3.83882 1.08275,0.68901 1.77177,1.2796 0.78745,0.49216 2.36235,1.77177 l -8.07137,10.33528 q -4.03568,-2.95294 -7.8745,-4.13411 -3.83882,-1.18118 -8.56352,-1.18118 -4.52784,0 -7.18549,1.5749 -2.55921,1.5749 -2.55921,4.72471 0,1.18117 0.68902,2.46078 0.68902,1.18117 1.87019,1.67333 0.88588,0.49216 1.8702,0.78745 0.98431,0.19686 2.06705,0.59059 l 2.06706,0.19686 2.36235,0.49216 2.95294,0.49215 q 11.61489,2.06706 17.52077,7.48078 5.90588,5.31529 5.90588,14.07568 z" />
      <path
         id="path9116"
         style="fill:#ffffff;stroke-width:0.26458332px"
         d="M 175.36065,152.19323 V 138.80657 H 198.492 v 13.38666 z" />
      <path
         id="path9118"
         style="fill:#ffffff;stroke-width:0.26458332px"
         d="m 209.84544,169.12341 v -66.14583 h 13.18979 v 66.14583 z" />
    </g>
    <text
       id="text8125"
       y="43.837727"
       x="81.953209"
       style="font-style:normal;font-variant:normal;font-weight:normal;font-stretch:normal;font-size:19.04999924px;line-height:125%;font-family:'Transport New';-inkscape-font-specification:'Transport New';text-align:center;letter-spacing:0px;word-spacing:0px;writing-mode:lr-tb;text-anchor:middle;fill:#000000;fill-opacity:1;stroke:none;stroke-width:0.26458332px;stroke-linecap:butt;stroke-linejoin:miter;stroke-opacity:1"
       xml:space="preserve"><tspan
         style="stroke-width:0.26458332px"
         y="61.077976"
         x="81.953209"
         id="tspan8123" /></text>
  </g>
</svg>
